<?xml version="1.0" encoding="UTF-8"?>
<svg id="Livello_1" xmlns="http://www.w3.org/2000/svg" version="1.1" viewBox="0 0 800 800">
  <!-- Generator: Adobe Illustrator 29.3.1, SVG Export Plug-In . SVG Version: 2.1.0 Build 151)  -->
  <defs>
    <style data-parcel-key="3bbbc25a4f8c9067">
      .st0 {
        fill: #fff;
      }
    </style>
  </defs>
  <path class="st0" d="M400,400c82.8,0,150-67.2,150-150s-67.2-150-150-150-150,67.2-150,150,67.2,150,150,150ZM400,450c-110.5,0-200-89.5-200-200S289.5,50,400,50s200,89.5,200,200-89.5,200-200,200Z"></path>
  <path class="st0" d="M400,400c13.8,0,25,11.2,25,25v200c0,13.8-11.2,25-25,25s-25-11.2-25-25v-200c0-13.8,11.2-25,25-25Z"></path>
  <path class="st0" d="M300,507.1v50.8c-89.2,14.3-150,45.2-150,67.1s109.3,75,250,75,250-45.6,250-75-60.8-52.9-150-67.2v-50.8c116.5,17.2,200,63.5,200,117.9s-134.3,125-300,125-300-56-300-125,83.5-100.8,200-117.9Z"></path>
</svg>