<?xml version="1.0" encoding="UTF-8"?>
<svg id="Livello_1" xmlns="http://www.w3.org/2000/svg" version="1.1" viewBox="0 0 24 24">
  <!-- Generator: Adobe Illustrator 29.3.1, SVG Export Plug-In . SVG Version: 2.1.0 Build 151)  -->
  <defs>
    <style>.st0 {
  fill: #fff;
}
</style>
  </defs>
  <g id="_60.User">
    <path class="st0" d="M12,12c-2.2,0-4-1.8-4-4s1.8-4,4-4,4,1.8,4,4-1.8,4-4,4ZM12,6c-1.1,0-2,.9-2,2s.9,2,2,2,2-.9,2-2-.9-2-2-2Z"></path>
    <path class="st0" d="M18.9,21.2l-2-.3c.5-2.7-1.4-5.3-4.1-5.8-2.7-.5-5.3,1.4-5.8,4.1,0,.5,0,1.1,0,1.7l-2,.3c-.6-3.8,1.9-7.4,5.7-8.1,3.8-.6,7.4,1.9,8.1,5.7.1.8.1,1.6,0,2.3h0Z"></path>
    <path class="st0" d="M12,24C5.4,24,0,18.6,0,12S5.4,0,12,0s12,5.4,12,12c0,6.6-5.4,12-12,12ZM12,2C6.5,2,2,6.5,2,12s4.5,10,10,10,10-4.5,10-10c0-5.5-4.5-10-10-10Z"></path>
  </g>
</svg>