<?xml version="1.0" encoding="UTF-8"?>
<svg id="Livello_1" xmlns="http://www.w3.org/2000/svg" version="1.1" viewBox="0 0 800 800">
  <!-- Generator: Adobe Illustrator 29.3.1, SVG Export Plug-In . SVG Version: 2.1.0 Build 151)  -->
  <defs>
    <style data-parcel-key="360ab751e1192666">
      .st0 {
        fill: none;
        stroke: #fff;
        stroke-linecap: round;
        stroke-linejoin: round;
        stroke-width: 66.7px;
      }
    </style>
  </defs>
  <path class="st0" d="M375.6,147c7.7-17.3,11.6-26,17-28.6,4.7-2.3,10.1-2.3,14.8,0,5.4,2.7,9.2,11.3,17,28.6l61.5,137.9c2.3,5.1,3.4,7.7,5.2,9.6,1.6,1.7,3.5,3.1,5.6,4.1,2.4,1.1,5.2,1.4,10.8,2l150.1,15.8c18.9,2,28.3,3,32.5,7.3,3.6,3.7,5.3,8.9,4.6,14.1-.9,5.9-7.9,12.3-22,25l-112.2,101.1c-4.2,3.8-6.2,5.6-7.6,7.9-1.2,2-1.9,4.3-2.1,6.6-.3,2.6.3,5.4,1.5,10.8l31.3,147.7c3.9,18.5,5.9,27.8,3.1,33.1-2.4,4.6-6.8,7.8-12,8.7-5.9,1-14.1-3.7-30.5-13.2l-130.8-75.4c-4.9-2.8-7.3-4.2-9.9-4.7-2.3-.5-4.6-.5-6.9,0-2.6.6-5,1.9-9.9,4.7l-130.8,75.4c-16.4,9.5-24.6,14.2-30.5,13.2-5.1-.9-9.6-4.1-12-8.7-2.8-5.3-.8-14.6,3.1-33.1l31.3-147.7c1.2-5.5,1.7-8.2,1.5-10.8-.2-2.3-1-4.6-2.1-6.6-1.3-2.3-3.4-4.2-7.6-7.9l-112.2-101.1c-14.1-12.7-21.1-19-22-25-.8-5.2.9-10.4,4.6-14.1,4.2-4.3,13.6-5.3,32.5-7.3l150.1-15.8c5.6-.6,8.4-.9,10.8-2,2.1-.9,4-2.3,5.6-4.1,1.8-2,2.9-4.5,5.2-9.6l61.5-137.9Z"></path>
</svg>