<?xml version="1.0" encoding="UTF-8"?>
<svg id="Livello_1" xmlns="http://www.w3.org/2000/svg" version="1.1" viewBox="0 0 800 800">
  <!-- Generator: Adobe Illustrator 29.3.1, SVG Export Plug-In . SVG Version: 2.1.0 Build 151)  -->
  <defs>
    <style>
      .st0 {
        fill: #ff8e8e;
        fill-rule: evenodd;
      }
    </style>
  </defs>
  <path class="st0" d="M666.7,33.3c55.2,0,100,44.8,100,100v533.3c0,55.2-44.8,100-100,100H133.3c-55.2,0-100-44.8-100-100V133.3c0-55.2,44.8-100,100-100h533.4ZM666.7,100c18.4,0,33.3,14.9,33.3,33.3v533.3c0,18.4-14.9,33.3-33.3,33.3h-166.7v-233.3h69.2c14.3,0,27.1-9.2,31.6-22.8l14.8-44.3c5.4-16.2-6.7-32.9-23.7-32.9h-91.9v-66.7c0-16.7,16.7-33.3,33.3-33.3h66.7c18.4,0,33.3-14.9,33.3-33.3v-22.9c0-10.8-6.9-20.4-17.3-23.2-43.7-11.5-82.7-11.5-82.7-11.5-83.3,0-133.3,57.6-133.3,107.6v83.3h-66.7c-18.4,0-33.3,14.9-33.3,33.3v33.3c0,18.4,14.9,33.3,33.3,33.3h66.7v233.3H133.3c-18.4,0-33.3-14.9-33.3-33.3V133.3c0-18.4,14.9-33.3,33.3-33.3h533.4Z"/>
</svg>